<?xml version="1.0" encoding="utf-8"?>
<!-- Generator: Adobe Illustrator 18.1.1, SVG Export Plug-In . SVG Version: 6.00 Build 0)  -->
<svg version="1.1" xmlns="http://www.w3.org/2000/svg" xmlns:xlink="http://www.w3.org/1999/xlink" x="0px" y="0px"
	 viewBox="0 0 250 100" enable-background="new 0 0 250 100" xml:space="preserve">
<g id="Layer_1">
	<path fill="#FFFFFF" d="M79.4,83H21.2c-2.7,0-4.9-2.2-4.9-4.9V20c0-2.7,2.2-4.9,4.9-4.9h58.2c2.7,0,4.9,2.2,4.9,4.9v58.2
		C84.3,80.8,82.1,83,79.4,83z"/>
	<path fill="#3366FF" stroke="#FFFFFF" stroke-miterlimit="10" d="M84.1,26.8c-1.7,3.1-4.9,3.4-6.8,3.3c-3.4-0.2-4.7-3.3-7.6-3.3
		c-4,0-4.9,3.1-8.7,3c-4-0.2-5.5-3.2-8.9-3c-3.4,0.2-3.5,2.8-6.8,3c-3.4,0.2-4.7-3.1-8.2-3c-3.3,0.1-3.9,2.8-7.2,3
		c-3.5,0.1-5.1-3.2-8.5-3c-2.1,0.2-4.4,2.4-4.5,3.7c-0.5,12.8,0.7,27.1,0,31.6c-0.6,3.9,0,7.9-0.2,11.9c-0.1,2-0.3,5.1,1.2,6.9
		c1.5,1.7,4,1.3,6.2,1.6c16.1,1.9,49.6,0,53.9,0.2c0.1,0,0.3,0,0.5,0c2.5-0.1,5.9-0.6,6-5.2"/>
	<path fill="#808184" d="M41.6,22.2l-1,11.1c0,0.3-0.2,0.5-0.4,0.6c-0.1,0-0.2,0-0.3,0c-0.2,0-0.3-0.1-0.4-0.2l-3.7-4.5l-0.1,1.7
		c-0.1,0.8-0.4,1.5-1,2c-0.6,0.5-1.3,0.7-2.1,0.7l-7.2-0.6c-0.8-0.1-1.5-0.4-2-1c-0.5-0.6-0.7-1.3-0.7-2.1l0.6-7.2
		c0.1-0.8,0.4-1.5,1-2c0.6-0.5,1.3-0.7,2.1-0.7l7.2,0.6c0.8,0.1,1.5,0.4,2,1c0.5,0.6,0.7,1.3,0.7,2.1l-0.1,1.7l4.5-3.7
		c0.1-0.1,0.3-0.2,0.5-0.2c0.1,0,0.2,0,0.2,0.1C41.5,21.7,41.7,21.9,41.6,22.2z"/>
	<path fill="#808184" d="M64.8,24.2c0,0.5-0.1,0.9-0.4,1.3c-0.3,0.4-0.7,0.6-1.2,0.6c-0.5,0-0.9-0.1-1.3-0.4
		c-0.4-0.3-0.6-0.7-0.6-1.2c0-0.5,0.1-0.9,0.4-1.3c0.3-0.4,0.7-0.6,1.2-0.6c0.5,0,0.9,0.1,1.3,0.4S64.8,23.7,64.8,24.2z M74.6,26.8
		l0.4,4.1l-13,1.3l-0.2-1.8l2.7-3.2l1.6,1.3l4.3-5.2L74.6,26.8z M74.9,20.2l-14.7,1.4c-0.1,0-0.1,0-0.2,0.1
		c-0.1,0.1-0.1,0.1-0.1,0.2L61,33.2c0,0.1,0,0.1,0.1,0.2c0.1,0.1,0.1,0.1,0.2,0.1L76,32c0.1,0,0.1,0,0.2-0.1
		c0.1-0.1,0.1-0.1,0.1-0.2l-1.1-11.2c0-0.1,0-0.1-0.1-0.2S74.9,20.2,74.9,20.2z M76.4,20.4l1.1,11.2c0,0.4-0.1,0.8-0.3,1.1
		c-0.3,0.3-0.6,0.5-1,0.5l-14.7,1.4c-0.4,0-0.8-0.1-1.1-0.3s-0.5-0.6-0.5-1l-1.1-11.2c0-0.4,0.1-0.8,0.3-1.1c0.3-0.3,0.6-0.5,1-0.5
		L74.7,19c0.4,0,0.8,0.1,1.1,0.3C76.1,19.6,76.3,20,76.4,20.4z"/>
	<g>
		<defs>
			<path id="SVGID_1_" d="M84.1,26.8c-1.7,3.1-4.9,3.4-6.8,3.3c-3.4-0.2-4.7-3.3-7.6-3.3c-4,0-4.9,3.1-8.7,3c-4-0.2-5.5-3.2-8.9-3
				c-3.4,0.2-3.5,2.8-6.8,3c-3.4,0.2-4.7-3.1-8.2-3c-3.3,0.1-3.9,2.8-7.2,3c-3.5,0.1-5.1-3.2-8.5-3c-2.1,0.2-4.4,2.4-4.5,3.7
				c-0.5,12.8,0.7,27.1,0,31.6c-0.6,3.9,0,7.9-0.2,11.9c-0.1,2-0.3,4.1,1.2,5.8c1.5,1.7,4,2.3,6.2,2.6c16.1,1.9,49.6,0,53.9,0.2
				c0.1,0,0.3,0,0.5,0c2.5-0.1,4.5-2.5,6-5.2"/>
		</defs>
		<clipPath id="SVGID_2_">
			<use xlink:href="#SVGID_1_"  overflow="visible"/>
		</clipPath>
		<path clip-path="url(#SVGID_2_)" fill="#FFFFFF" d="M64.8,24.2c0,0.5-0.1,0.9-0.4,1.3c-0.3,0.4-0.7,0.6-1.2,0.6
			c-0.5,0-0.9-0.1-1.3-0.4c-0.4-0.3-0.6-0.7-0.6-1.2c0-0.5,0.1-0.9,0.4-1.3c0.3-0.4,0.7-0.6,1.2-0.6c0.5,0,0.9,0.1,1.3,0.4
			S64.8,23.7,64.8,24.2z M74.6,26.8l0.4,4.1l-13,1.3l-0.2-1.8l2.7-3.2l1.6,1.3l4.3-5.2L74.6,26.8z M74.9,20.2l-14.7,1.4
			c-0.1,0-0.1,0-0.2,0.1c-0.1,0.1-0.1,0.1-0.1,0.2L61,33.2c0,0.1,0,0.1,0.1,0.2c0.1,0.1,0.1,0.1,0.2,0.1L76,32c0.1,0,0.1,0,0.2-0.1
			c0.1-0.1,0.1-0.1,0.1-0.2l-1.1-11.2c0-0.1,0-0.1-0.1-0.2S74.9,20.2,74.9,20.2z M76.4,20.4l1.1,11.2c0,0.4-0.1,0.8-0.3,1.1
			c-0.3,0.3-0.6,0.5-1,0.5l-14.7,1.4c-0.4,0-0.8-0.1-1.1-0.3s-0.5-0.6-0.5-1l-1.1-11.2c0-0.4,0.1-0.8,0.3-1.1c0.3-0.3,0.6-0.5,1-0.5
			L74.7,19c0.4,0,0.8,0.1,1.1,0.3C76.1,19.6,76.3,20,76.4,20.4z"/>
	</g>
	<path opacity="0.3" fill="#FFFFFF" d="M84.2,53.9H17.5c0,5.4-0.3,8.8-0.7,11c-0.2,1.1-0.3,2.3-0.3,3.5h67.8L84.2,53.9z"/>
	<path opacity="0.45" fill="#FFFFFF" d="M16.5,75.6c-0.1,1.8-0.3,3.7,1.2,5.3c1.2,1.2,3,1.8,4.9,2.1H80c1.8-0.7,3.2-2.4,4.4-4.3
		l-0.1-10.3H16.5C16.4,70.8,16.7,73.2,16.5,75.6z"/>
	<path opacity="0.15" fill="#FFFFFF" d="M17.5,53.9h66.7l-0.1-14.1H17C17.4,45.6,17.5,50.2,17.5,53.9z"/>
	<path fill="none" stroke="#6D6E70" stroke-width="2.5311" stroke-miterlimit="10" d="M79.4,83H21.2c-2.7,0-4.9-2.2-4.9-4.9V20
		c0-2.7,2.2-4.9,4.9-4.9h58.2c2.7,0,4.9,2.2,4.9,4.9v58.2C84.3,80.8,82.1,83,79.4,83z"/>
	<g>
		<text transform="matrix(1 0 0 1 123.6631 72.0322)" fill="#6D6E70" font-family="'FuturaPT-Book'" font-size="62.0948">lode</text>
		<text transform="matrix(1 0 0 1 105.3379 72.0322)" fill="#6D6E70" font-family="'FuturaPT-Book'" font-size="62.0948">f</text>
	</g>
	<g>
		<defs>
			<path id="SVGID_3_" d="M41.6,22.2l-1,11.1c0,0.3-0.2,0.5-0.4,0.6c-0.1,0-0.2,0-0.3,0c-0.2,0-0.3-0.1-0.4-0.2l-3.7-4.5l-0.1,1.7
				c-0.1,0.8-0.4,1.5-1,2c-0.6,0.5-1.3,0.7-2.1,0.7l-7.2-0.6c-0.8-0.1-1.5-0.4-2-1c-0.5-0.6-0.7-1.3-0.7-2.1l0.6-7.2
				c0.1-0.8,0.4-1.5,1-2c0.6-0.5,1.3-0.7,2.1-0.7l7.2,0.6c0.8,0.1,1.5,0.4,2,1c0.5,0.6,0.7,1.3,0.7,2.1l-0.1,1.7l4.5-3.7
				c0.1-0.1,0.3-0.2,0.5-0.2c0.1,0,0.2,0,0.2,0.1C41.5,21.7,41.7,21.9,41.6,22.2z"/>
		</defs>
		<clipPath id="SVGID_4_">
			<use xlink:href="#SVGID_3_"  overflow="visible"/>
		</clipPath>
		<path clip-path="url(#SVGID_4_)" fill="#FFFFFF" d="M84.1,26.8c-1.7,3.1-4.9,3.4-6.8,3.3c-3.4-0.2-4.7-3.3-7.6-3.3
			c-4,0-4.9,3.1-8.7,3c-4-0.2-5.5-3.2-8.9-3c-3.4,0.2-3.5,2.8-6.8,3c-3.4,0.2-4.7-3.1-8.2-3c-3.3,0.1-3.9,2.8-7.2,3
			c-3.5,0.1-5.1-3.2-8.5-3c-2.1,0.2-4.4,2.4-4.5,3.7c-0.5,12.8,0.7,27.1,0,31.6c-0.6,3.9,0,7.9-0.2,11.9c-0.1,2-0.3,4.1,1.2,5.8
			c1.5,1.7,4,2.3,6.2,2.6c16.1,1.9,49.6,0,53.9,0.2c0.1,0,0.3,0,0.5,0c2.5-0.1,4.5-2.5,6-5.2"/>
	</g>
</g>
<g id="Layer_2">
</g>
</svg>
